<svg width="1920" height="1080" viewBox="0 0 1920 1080" xmlns="http://www.w3.org/2000/svg"><rect width="1920" height="1080" fill="#b9c19f"/><path d="M1920,1080C1641.8333333333333,1107.1666666666667,280.5,1100.5,0,1080C-280.5,1059.5,157.16666666666669,961.1666666666666,237,957C316.8333333333333,952.8333333333334,399.3333333333333,1048.3333333333333,479,1055C558.6666666666666,1061.6666666666667,635.3333333333334,1015.3333333333334,715,997C794.6666666666666,978.6666666666666,878,944.5,957,945C1036,945.5,1109.5,989.8333333333334,1189,1000C1268.5,1010.1666666666666,1354,1019.8333333333334,1434,1006C1514,992.1666666666666,1588,904.6666666666666,1669,917C1750,929.3333333333334,2198.1666666666665,1052.8333333333333,1920,1080C1641.8333333333333,1107.1666666666667,280.5,1100.5,0,1080" fill="#0f0f0f"/></svg>