<svg width="1920" height="1080" viewBox="0 0 1920 1080" xmlns="http://www.w3.org/2000/svg"><rect width="1920" height="1080" fill="#d7d7a3"/><path d="M1920,1080C1640.8333333333333,1109.8333333333333,280.5,1110.3333333333333,0,1080C-280.5,1049.6666666666667,157.66666666666669,928,237,898C316.3333333333333,868,397.5,886,476,900C554.5,914,628,977,708,982C788,987,874.8333333333334,940.1666666666666,956,930C1037.1666666666667,919.8333333333334,1116.1666666666667,902.1666666666666,1195,921C1273.8333333333333,939.8333333333334,1349,1046.3333333333333,1429,1043C1509,1039.6666666666667,1593.1666666666667,894.8333333333334,1675,901C1756.8333333333333,907.1666666666666,2199.1666666666665,1050.1666666666667,1920,1080C1640.8333333333333,1109.8333333333333,280.5,1110.3333333333333,0,1080" fill="#000000"/></svg>